#N canvas 177 23 670 524 10;
#X obj 245 176 hasher sha1;
#X obj 48 452 hasher;
#X msg 48 346 about;
#X msg 112 409 algorithm md5;
#X msg 114 387 algorithm sha1;
#X msg 114 346 algorithm sha256;
#X obj 141 176 hasher sha256;
#X obj 245 238 print sha1;
#X obj 141 238 print sha256;
#X msg 53 57 hex test bla;
#X msg 114 367 algorithm tiger;
#X obj 335 176 hasher md5;
#X obj 335 238 print md5;
#X obj 416 176 hasher tiger;
#X obj 416 238 print tiger;
#X obj 53 105 t a a a a a;
#X obj 53 178 hasher sha512;
#X obj 53 240 print sha512;
#X connect 0 0 7 0;
#X connect 2 0 1 0;
#X connect 3 0 1 0;
#X connect 4 0 1 0;
#X connect 5 0 1 0;
#X connect 6 0 8 0;
#X connect 9 0 15 0;
#X connect 10 0 1 0;
#X connect 11 0 12 0;
#X connect 13 0 14 0;
#X connect 15 0 16 0;
#X connect 15 1 6 0;
#X connect 15 2 0 0;
#X connect 15 3 11 0;
#X connect 15 4 13 0;
#X connect 16 0 17 0;
